<svg width="949" height="256" xmlns="http://www.w3.org/2000/svg">
 <g>
  <title>background</title>
  <rect x="-1" y="-1" width="951" height="258" id="canvas_background" fill="none"/>
 </g>

 <g>
  <title>Layer 1</title>
  <text fill="#000000" stroke-width="0" stroke-opacity="null" fill-opacity="null" x="649.206698" y="155.582155" id="svg_13" font-size="24" font-family="'Simonetta', serif" text-anchor="start" xml:space="preserve" transform="matrix(5.0949505312445895,0,0,7.202050106153994,-3063.607478803279,-929.4485888213451) " stroke="null" font-weight="bold">AIZhangyao</text>
  <path fill="#2366d1" stroke-width="null" stroke-opacity="null" fill-opacity="null" d="m144.45051,80.4781c3.43618,-5.50202 9.72302,-12.66929 -1.07849,-14.39837c-3.00888,-1.36574 -6.01874,-3.7824 -9.02374,-1.09028c-6.68602,2.33535 -12.482,5.60124 -5.44957,11.7134c3.11852,3.94724 5.95493,12.55973 9.48744,13.50826c2.10832,-3.20111 4.08336,-6.46947 6.06437,-9.73302l0,0.00001l-0.00001,0zm-14.77047,15.19177c-6.13785,-9.68618 -11.07714,-20.07767 -18.58958,-29.01333c-9.13701,-8.62571 -27.14022,-4.78065 -31.2315,6.34532c-5.43477,10.99994 6.29168,24.13351 19.56662,22.75671c10.07362,0.14918 20.20455,0.55027 30.25446,-0.0887zm51.00394,0.32699c13.05452,-1.54726 20.56176,-16.07852 13.12902,-25.72693c-6.58666,-10.29655 -25.53616,-10.6555 -32.15154,-0.19193c-5.72824,8.4593 -10.70003,17.29891 -15.95652,25.99013c11.62105,0.5875 23.3514,0.45046 34.97904,-0.07128l0,0.00001zm21.61959,12.38927c4.45035,-3.46241 21.68402,-7.5443 8.6321,-10.83258c-3.23326,-0.81125 -7.00279,-4.53288 -9.90865,-3.51443c-6.30998,6.93677 -16.01216,11.0062 -26.14212,10.57996c-1.98304,0.57635 -12.09756,-0.87658 -9.36472,0.7737c7.14632,3.60294 14.11268,7.51574 21.50449,10.7137c5.17739,-2.43805 10.20218,-5.12374 15.2789,-7.72036l0,0.00001zm-101.67571,1.96028c3.80579,-1.96028 7.61158,-3.92056 11.41737,-5.88084c-11.63307,-0.51109 -24.94608,0.97149 -33.73769,-7.30151c-2.47871,-2.45405 -4.85561,-5.26367 -8.29099,-2.17412c-4.11487,2.50659 -16.77171,5.07525 -7.02663,8.1351c8.48579,4.43225 16.91188,8.97264 25.6074,13.07697c4.14351,-1.71807 8.04935,-3.86532 12.03054,-5.85559l0,-0.00001zm55.77482,21.87263c4.93188,-3.50376 16.87765,-6.84187 17.27674,-10.60171c-11.15049,-5.67346 -21.97619,-11.99024 -33.6418,-16.78567c-4.01458,-1.3467 -7.26946,0.72547 -10.50091,2.52529c-9.5555,5.02557 -19.34091,9.73925 -28.58548,15.2034c12.0902,6.61038 24.32573,13.02529 36.68029,19.24184c6.30149,-3.1251 12.52151,-6.37794 18.77116,-9.58315l0,0zm49.4786,10.9363c5.11654,-2.85444 10.23309,-5.70888 15.34965,-8.56334c-0.04188,-9.56045 0.13081,-19.1249 -0.16501,-28.68201c-10.32663,5.09481 -20.50641,10.44402 -30.51437,16.01402c-1.09457,9.86064 -0.53946,19.88434 -0.30156,29.79467c5.28089,-2.75095 10.43348,-5.69325 15.63129,-8.56334zm-119.99749,-6.02324c0.51966,-8.14949 1.63984,-17.43946 -9.47539,-19.85357c-7.01932,-2.89466 -16.74871,-10.31135 -22.15638,-10.23696c-0.16849,9.18265 -0.07932,18.36698 -0.09755,27.55042c10.36871,5.72128 20.55342,11.718 31.14591,17.11123c1.02708,-4.73354 0.35566,-9.75135 0.58341,-14.57112zm74.25016,31.55384c6.13291,-3.42346 12.26581,-6.84691 18.39871,-10.27037c-0.0284,-9.87005 0.43318,-19.75429 -0.07128,-29.61374c-6.7401,1.70899 -14.44912,6.99152 -21.55018,10.27269c-5.31716,2.75389 -10.63435,5.50781 -15.95151,8.26172c0.10485,10.5388 -0.28664,21.09684 0.38776,31.62004c6.35647,-3.28393 12.54398,-6.82073 18.78649,-10.27035l0.00001,0l0,0.00001zm-25.70868,-5.53969c0,-5.27001 0,-10.54002 0,-15.81001c-12.31168,-6.36167 -24.58395,-12.78363 -36.94362,-19.07215c-0.68349,10.07773 -0.2929,20.19337 -0.39597,30.28851c12.30893,6.81402 24.49031,13.81413 36.95495,20.40368c0.48503,-5.25134 0.30793,-10.54457 0.38464,-15.81003zm71.76203,21.18527c5.01751,-2.9542 10.03501,-5.9084 15.05253,-8.86261c-0.20935,-9.3662 0.51686,-18.85915 -0.53936,-28.12201c-10.43451,5.26384 -20.50485,11.2566 -30.75339,16.87592c0.24621,9.69093 -0.50552,19.4928 0.62665,29.10092c5.29354,-2.87284 10.42582,-5.97364 15.61357,-8.99222zm-120.41429,-5.25085c-0.04084,-4.91082 -0.08173,-9.82165 -0.12258,-14.73247c-10.36599,-5.73425 -20.60138,-11.66032 -31.1231,-17.16911c-0.65847,9.40839 -0.28315,18.85346 -0.38218,28.27866c10.4573,6.12048 20.79696,12.40316 31.39448,18.3326c0.40604,-4.88861 0.20453,-9.81028 0.23338,-14.70967l0,-0.00001zm74.62598,32.27187c6.09082,-3.57666 12.18163,-7.15332 18.27245,-10.72997c-0.01415,-9.97307 0.21501,-19.95044 -0.08806,-29.9201c-12.39848,6.75944 -24.71402,13.6433 -36.93873,20.64568c-1.38157,9.62998 -0.48578,19.55879 -0.4878,29.29403c3.79419,2.0434 13.49523,-7.01272 19.24214,-9.28964l0,0zm-25.97372,-4.26929c-0.73653,-6.87676 3.16765,-16.5562 -6.71721,-19.22211c-9.96853,-5.58264 -19.89698,-11.22621 -29.99667,-16.62198c-1.47207,9.44111 0.06752,19.27655 -1.0633,28.83315c12.11145,7.74138 24.5394,15.14199 37.19374,22.17032c1.01493,-4.92528 0.38368,-10.14245 0.58344,-15.15938l0,0zm-42.35731,-1.8179c-14.7413,-8.70091 -29.48259,-17.40181 -44.22388,-26.1027c0.01672,-26.85219 -0.40288,-53.71084 0.13613,-80.558c7.38173,-4.0272 15.23708,-7.32853 22.83395,-11.02339c-4.9068,-12.4197 2.17275,-27.51226 16.4007,-32.16108c11.92704,-4.32705 26.30412,-0.42221 33.90818,8.68698c5.52314,-2.50457 11.04629,-5.00914 16.56944,-7.51372c5.55281,2.52724 11.10564,5.05447 16.65843,7.58169c7.95666,-8.34513 21.58854,-13.10749 33.40176,-8.43064c14.1799,4.40688 21.90894,19.46571 16.82377,31.86591c7.65277,3.82025 15.97312,6.80554 22.98985,11.46722c0.31106,26.69316 0.00278,53.39025 -0.02543,80.08504c-29.3316,17.16323 -58.18788,34.98162 -87.99569,51.49227c-8.66761,-0.00206 -16.149,-8.32331 -24.19193,-11.6971c-7.77581,-4.54547 -15.53199,-9.11714 -23.28531,-13.69248l0.00003,0z" id="svg_14" stroke="null"/>
  <path fill="#2366d1" stroke="null" stroke-width="null" stroke-opacity="null" fill-opacity="null" d="m18.81624,64.68593c-4.35153,-0.39271 -8.3934,-2.5287 -7.57249,-5.02212c0.41549,-2.73727 4.48503,-4.94031 8.57962,-6.39181c5.44936,-1.98346 12.90016,-2.72028 18.90546,-1.00958c0.35187,-13.79754 0.15134,-27.59854 0.20464,-41.39764c3.78697,-0.49025 2.56252,2.16061 3.42261,3.38652c0.8207,3.60482 5.34298,6.4334 9.84439,8.95918c5.58474,3.17479 11.51493,6.54102 13.33018,10.93949c1.98219,5.10318 -1.18667,10.32378 -5.29901,14.8972c-0.29779,1.46574 -5.3265,3.58633 -2.93065,0.93766c4.03421,-4.531 7.36698,-9.7492 4.61338,-14.76657c-2.62223,-5.0064 -10.79552,-9.18749 -20.52526,-9.93719c-0.06288,10.57138 0.15313,21.14475 -0.23059,31.71443c-0.95654,3.11346 -6.01452,5.42362 -11.08679,6.74274c-3.49756,0.81418 -7.44505,1.30679 -11.25549,0.9477l0,-0.00001z" id="svg_15"/>
  <path fill="#2366d1" stroke-width="null" stroke-opacity="null" fill-opacity="null" d="m244.78759,87.81666c-5.5111,-0.5687 -9.67154,-3.32289 -8.29168,-6.18648c1.95152,-4.0175 9.34518,-6.79658 16.74468,-8.11738c4.92885,-0.82978 10.52202,-0.70435 15.15004,0.52945c0.41325,-15.34517 0.17727,-30.6942 0.24002,-46.0411c1.67053,-0.00021 3.81421,-0.2736 3.36031,0.95278c0.2331,2.75587 2.90478,5.27872 7.01061,7.05645c9.15966,4.32604 19.46334,9.02357 21.56743,15.61682c0.5973,2.78157 -0.04287,5.58487 -1.26184,8.30118c3.6099,3.41545 3.39238,7.55347 1.9266,11.25783c-0.95049,1.95607 -2.50082,3.84038 -4.47157,5.5853c-4.65326,1.09808 0.55155,-1.79479 0.48627,-2.83693c2.51693,-3.13075 2.80566,-6.61813 1.66087,-9.91595c-2.49384,-4.82426 -11.92193,-7.1814 -19.50361,-9.70368c-2.74324,-0.54421 -8.60706,-3.8265 -7.44431,-0.61019c-0.25414,8.7184 -0.21074,17.43806 -0.29035,26.15714c-3.18248,4.04231 -10.4833,7.12735 -18.96323,7.90094c-2.59789,0.22759 -5.31856,0.31082 -7.92024,0.05383l0,-0.00001zm52.87347,-32.96464c0.07561,-4.96168 -7.21478,-8.97612 -14.3584,-11.91849c-3.57459,-1.36617 -7.36104,-2.81353 -11.38054,-3.69774c0.24723,2.85318 2.82268,5.63317 5.90543,8.00253c5.80952,3.94598 14.58019,6.58541 19.44681,10.9301c0.58357,-1.07871 0.40754,-2.21087 0.3867,-3.3164z" id="svg_17" stroke="null"/>
 </g>
</svg>